<?xml version="1.0" encoding="utf-8"?>
<?xml-stylesheet type="text/xsl" href="rss1.xsl"?>
<rss version="2.0" xmlns:atom="http://www.w3.org/2005/Atom" xmlns:content="http://purl.org/rss/1.0/modules/content/" xmlns:dc="http://purl.org/dc/elements/1.1/" xmlns:media="http://search.yahoo.com/mrss/">
<channel>
 <title>Getty</title>
 <link>http://www.gettyimg.com/</link>
 <atom:link href="http://www.gettyimg.com/" rel="self" type="application/rss+xml" />

 
                <item>
                <title><![CDATA[【BLU-RAY &amp; BD RIP】Schiller X Ro Nova X Tricia McTeague - Illuminate (Studiosession) [BDRemux 1080p | PCM 24-bit 48kHz | DTS-HD MA 5.1 | Dolby Atmos]]]></title>
                <link><![CDATA[https://sharemania.us/threads/schiller-x-ro-nova-x-tricia-mcteague-illuminate-studiosession-bdremux-1080p-pcm-24-bit-48khz-dts-hd-ma-5-1-dolby-atmos.231186/]]></link>
                <description><![CDATA[<article>
<blockquote class="messageText SelectQuoteContainer ugc baseHtml">
<b><img src="https://images2.imgbox.com/d3/99/sAesmHvL_o.jpg" class="bbCodeImage LbImage" alt="[​IMG]" data-url="https://images2.imgbox.com/d3/99/sAesmHvL_o.jpg" style=""> <br>
<br>
Genre: <span style="color: #0059b3">Electronic</span> <br>
Style: <span style="color: #0059b3">Electro, Downtempo</span> <br>
Year: <span style="color: #0059b3">2023</span><br>
Source: <span style="color: #0059b3">Blu-ray (Super Deluxe Edition)</span></b><br>
<br>
"<b>Illuminate</b>" is a song by the music project Schiller created by the German electronic musician Christopher Von Deylen. With 8 number 1 albums and numerous gold &amp; platinum awards, Schiller is Germany’s number 1 electronic artist. Illuminate features vocals by Ro Nova and Tricia McTeague.<br>
<br>
The arrangements on "Illuminate" partly consist of more than 60 audio tracks, which are combined in a so-called "session". Using the title track as an example, the blu-ray contains a studiosession of the song, to give an insight into one of the most complex sessions of the album.<br>
<br>
<b>Release Info</b><br>
Remux from the Blu-ray release of Illuminate (Super Deluxe Edition)<br>
Synced both surround tracks to the videotrack (DTS-HD MA 5.1 &amp; Dolby Atmos)<br>
<br>
<b><span style="color: #ff0000">Note to the peeps @ RuTracker: Give credit if you post the work of someone else!</span></b><br>
- Hurby4 aka ADHDerby<br>
<br>
<div class="ToggleTriggerAnchor bbCodeSpoilerContainer">
<button type="button" class="button bbCodeSpoilerButton ToggleTrigger Tooltip JsOnly" data-target="> .SpoilerTarget"><span>Spoiler: <span class="SpoilerTitle">Media Info</span></span></button>
<div class="SpoilerTarget bbCodeSpoilerText">
<div class="bbCodeBlock bbCodeCode">
<div class="type">Code:</div>
<pre>General
Unique ID                      : 25451665196455726868056356692751054686 (0x1325CFFA5712D2D7E59ADA0EFBF4775E)
Complete name                  : Schiller X Ro Nova X Tricia McTeague - Illuminate (Studiosession).mkv
Format                         : Matroska
Format version                 : Version 4 / Version 2
File size                      : 813 MiB
Duration                       : 4 min 10 s
Overall bit rate mode          : Variable
Overall bit rate               : 27.2 Mb/s
Frame rate                     : 25.000 FPS
Encoded date                   : 2023-10-27 17:48:40 UTC
Writing application            : mkvmerge v79.0 ('Funeral Pyres') 64-bit
Writing library                : libebml v1.4.4 + libmatroska v1.7.1

Video
ID                             : 1
ID in the original source medi : 4113 (0x1011)
Format                         : AVC
Format/Info                    : Advanced Video Codec
Format profile                 : High@L4.1
Format settings                : CABAC / 4 Ref Frames
Format settings, CABAC         : Yes
Format settings, Reference fra : 4 frames
Format settings, picture struc : Frame
Codec ID                       : V_MPEG4/ISO/AVC
Duration                       : 4 min 10 s
Bit rate mode                  : Variable
Bit rate                       : 18.5 Mb/s
Maximum bit rate               : 35.0 Mb/s
Width                          : 1 920 pixels
Height                         : 1 080 pixels
Display aspect ratio           : 16:9
Frame rate mode                : Constant
Frame rate                     : 25.000 FPS
Color space                    : YUV
Chroma subsampling             : 4:2:0
Bit depth                      : 8 bits
Scan type                      : Interlaced
Scan type, store method        : Interleaved fields
Scan order                     : Top Field First
Bits/(Pixel*Frame)             : 0.357
Time code of first frame       : 10:00:10:0000000020
Stream size                    : 552 MiB (68%)
Language                       : English
Default                        : Yes
Forced                         : No
Original source medium         : Blu-ray

Audio #1
ID                             : 2
ID in the original source medi : 4352 (0x1100)
Format                         : PCM
Format settings                : Little / Signed
Codec ID                       : A_PCM/INT/LIT
Duration                       : 4 min 10 s
Bit rate mode                  : Constant
Bit rate                       : 2 304 kb/s
Channel(s)                     : 2 channels
Sampling rate                  : 48.0 kHz
Frame rate                     : 30.003 FPS (1600 SPF)
Bit depth                      : 24 bits
Stream size                    : 68.8 MiB (8%)
Language                       : English
Default                        : Yes
Forced                         : No
Original source medium         : Blu-ray

Audio #2
ID                             : 3
ID in the original source medi : 4353 (0x1101)
Format                         : DTS XLL
Format/Info                    : Digital Theater Systems
Commercial name                : DTS-HD Master Audio
Codec ID                       : A_DTS
Duration                       : 4 min 8 s
Bit rate mode                  : Variable / Constant
Bit rate                       : 2 490 kb/s / 1 509 kb/s
Channel(s)                     : 6 channels
Channel layout                 : C L R Ls Rs LFE
Sampling rate                  : 48.0 kHz
Frame rate                     : 93.750 FPS (512 SPF)
Bit depth                      : 16 bits / 24 bits
Compression mode               : Lossless / Lossy
Delay relative to video        : 7 ms
Stream size                    : 73.8 MiB (9%)
Language                       : English
Default                        : Yes
Forced                         : No
Original source medium         : Blu-ray

Audio #3
ID                             : 4
ID in the original source medi : 4354 (0x1102)
Format                         : MLP FBA 16-ch
Format/Info                    : Meridian Lossless Packing FBA with 16-channel presentation
Commercial name                : Dolby TrueHD with Dolby Atmos
Codec ID                       : A_TRUEHD
Duration                       : 4 min 8 s
Bit rate mode                  : Variable
Bit rate                       : 3 910 kb/s
Maximum bit rate               : 5 472 kb/s
Channel(s)                     : 8 channels
Channel layout                 : L R C LFE Ls Rs Lb Rb
Sampling rate                  : 48.0 kHz
Frame rate                     : 1 200.000 FPS (40 SPF)
Bit depth                      : 24 bits
Compression mode               : Lossless
Stream size                    : 116 MiB (14%)
Language                       : English
Default                        : Yes
Forced                         : No
Original source medium         : Blu-ray
Number of dynamic objects      : 15
Bed channel count              : 1 channel
Bed channel configuration      : LFE
</pre>
</div></div>
</div><br>
<div class="bbCodeBlock bbCodeVfcHH HiddenContent">
<div class="attribution type">Hidden Content:</div>
<blockquote>You must reply before you can see the hidden data contained here.</blockquote>
</div>
<div class="messageTextEndMarker">&nbsp;</div>
</blockquote>
</article>]]></description>
                <author><![CDATA[ADHDerby]]></author>
                </item>

                </channel></rss>